{"asset":{"version":"2.0","generator":"babylon.js glTF exporter for 3dsmax 2020 v20200508.2"},"scene":0,"scenes":[{"nodes":[0,1,2]}],"nodes":[{"mesh":0,"translation":[0.007936487,0.0,-0.149179146],"name":"Box001"},{"mesh":1,"translation":[-2.08363223,0.0,-0.149179146],"name":"Box002"},{"name":"Default light"}],"meshes":[{"primitives":[{"attributes":{"POSITION":1,"NORMAL":2,"TEXCOORD_0":3},"indices":0,"material":0}],"name":"Box001"},{"primitives":[{"attributes":{"POSITION":5,"NORMAL":6,"TEXCOORD_0":7},"indices":4,"material":1}],"name":"Box002"}],"accessors":[{"bufferView":0,"componentType":5123,"count":36,"type":"SCALAR","name":"accessorIndices"},{"bufferView":1,"componentType":5126,"count":36,"max":[1.69999993,2.14999986,2.6],"min":[-1.69999993,0.0,-2.6],"type":"VEC3","name":"accessorPositions"},{"bufferView":1,"byteOffset":432,"componentType":5126,"count":36,"type":"VEC3","name":"accessorNormals"},{"bufferView":2,"componentType":5126,"count":36,"type":"VEC2","name":"accessorUVs"},{"bufferView":0,"byteOffset":72,"componentType":5123,"count":36,"type":"SCALAR","name":"accessorIndices"},{"bufferView":1,"byteOffset":864,"componentType":5126,"count":36,"max":[3.25,2.8,0.75],"min":[-3.25,0.0,-0.75],"type":"VEC3","name":"accessorPositions"},{"bufferView":1,"byteOffset":1296,"componentType":5126,"count":36,"type":"VEC3","name":"accessorNormals"},{"bufferView":2,"byteOffset":288,"componentType":5126,"count":36,"type":"VEC2","name":"accessorUVs"}],"bufferViews":[{"buffer":0,"byteLength":144,"name":"bufferViewScalar"},{"buffer":0,"byteOffset":144,"byteLength":1728,"byteStride":12,"name":"bufferViewFloatVec3"},{"buffer":0,"byteOffset":1872,"byteLength":576,"byteStride":8,"name":"bufferViewFloatVec2"}],"buffers":[{"uri":"teste.bin","byteLength":2448}],"materials":[{"pbrMetallicRoughness":{"baseColorFactor":[0.466666669,0.490196079,0.7294118,1.0],"metallicFactor":0.0,"roughnessFactor":0.31},"name":"Ceramic"},{"pbrMetallicRoughness":{"baseColorFactor":[1.0,0.0,0.0,1.0],"metallicFactor":0.0,"roughnessFactor":0.546446562},"name":"16 - Matte Plastic"}]}